<svg width="96" height="96" xmlns="http://www.w3.org/2000/svg" xmlns:xlink="http://www.w3.org/1999/xlink" overflow="hidden"><defs><clipPath id="clip0"><rect x="144" y="201" width="96" height="96"/></clipPath></defs><g clip-path="url(#clip0)" transform="translate(-144 -201)"><path d="M194 231 190 231C187.8 231 186 229.2 186 227L186 219C186 216.8 187.8 215 190 215L194 215C196.2 215 198 216.8 198 219L198 227C198 229.2 196.2 231 194 231Z" fill="#FFFFFF"/><path d="M224 251 200 251 200 247 224 247 224 251ZM224 263 200 263 200 259 224 259 224 263ZM224 275 200 275 200 271 224 271 224 275ZM192 275 160 275 160 267C160 265.8 160.6 264.6 161.6 263.8 163.8 262.2 166.6 260.8 169.4 260 171.6 259.4 173.8 259 176 259 178.4 259 180.6 259.4 182.6 260 185.4 260.8 188.2 262 190.4 263.8 191.4 264.6 192 265.8 192 267L192 275ZM176 241C180.4 241 184 244.6 184 249 184 253.4 180.4 257 176 257 171.6 257 168 253.4 168 249 168 244.6 171.6 241 176 241ZM228 227 202 227C202 231.4 198.4 235 194 235L190 235C185.6 235 182 231.4 182 227L156 227C153.8 227 152 228.8 152 231L152 279C152 281.2 153.8 283 156 283L228 283C230.2 283 232 281.2 232 279L232 231C232 228.8 230.2 227 228 227Z" fill="#FFFFFF"/></g></svg>