<svg width="30" height="30" xmlns="http://www.w3.org/2000/svg" xmlns:xlink="http://www.w3.org/1999/xlink" overflow="hidden"><defs><clipPath id="clip0"><rect x="452" y="343" width="30" height="30"/></clipPath></defs><g clip-path="url(#clip0)" transform="translate(-452 -343)"><path d="M476 347 458 347C456.895 347 456 347.895 456 349L456 367C456 368.105 456.895 369 458 369L468 369 468 360 465 360 465 357 468 357 468 355.389C468 352.339 469.486 351 472.021 351 473.235 351 473.877 351.09 474.181 351.131L474.181 354 472.452 354C471.376 354 471 354.568 471 355.718L471 357 474.154 357 473.726 360 471 360 471 369 476 369C477.105 369 478 368.105 478 367L478 349C478 347.895 477.104 347 476 347Z" fill="#0D1A2D"/></g></svg>