<svg width="30" height="30" xmlns="http://www.w3.org/2000/svg" xmlns:xlink="http://www.w3.org/1999/xlink" overflow="hidden"><defs><clipPath id="clip0"><rect x="625" y="345" width="30" height="30"/></clipPath></defs><g clip-path="url(#clip0)" transform="translate(-625 -345)"><path d="M653 351.937C652.043 352.362 651.015 352.648 649.936 352.777 651.038 352.117 651.883 351.072 652.281 349.826 651.251 350.437 650.109 350.881 648.893 351.121 647.92 350.084 646.534 349.436 645 349.436 642.054 349.436 639.666 351.825 639.666 354.77 639.666 355.188 639.714 355.596 639.804 355.985 635.371 355.763 631.441 353.639 628.809 350.411 628.351 351.199 628.088 352.115 628.088 353.094 628.088 354.944 629.029 356.577 630.46 357.533 629.586 357.505 628.763 357.265 628.044 356.866 628.044 356.889 628.044 356.91 628.044 356.933 628.044 359.518 629.882 361.674 632.323 362.163 631.876 362.285 631.404 362.35 630.917 362.35 630.574 362.35 630.239 362.316 629.914 362.255 630.593 364.374 632.563 365.917 634.897 365.96 633.072 367.391 630.772 368.244 628.272 368.244 627.842 368.244 627.417 368.219 626.999 368.169 629.36 369.682 632.163 370.565 635.176 370.565 644.988 370.565 650.352 362.437 650.352 355.388 650.352 355.157 650.347 354.927 650.337 354.698 651.38 353.945 652.285 353.006 653 351.937Z" fill="#0D1A2D"/></g></svg>