<svg width="96" height="96" xmlns="http://www.w3.org/2000/svg" xmlns:xlink="http://www.w3.org/1999/xlink" overflow="hidden"><defs><clipPath id="clip0"><rect x="360" y="197" width="96" height="96"/></clipPath></defs><g clip-path="url(#clip0)" transform="translate(-360 -197)"><path d="M408.009 254C410.957 254.028 413.893 253.632 416.728 252.823L416.375 259 439.475 259C438.874 257.206 437.762 255.626 436.275 254.456 432.535 251.395 428.138 249.506 423.522 247.856L418.633 245.849C418.258 245.695 418.014 245.329 418.014 244.924L418.014 242.475C421.804 239.444 424.011 234.853 424.01 230L424.01 228.5C424.882 226.727 425.436 224.814 425.645 222.849 425.634 216.13 421.372 210.7 415.6 207.888 415.123 207.664 414.563 207.714 414.133 208.019L413.123 208.719 412.007 207.2C411.663 206.718 411.146 206.389 410.564 206.281 409.523 206.097 408.469 206.003 407.412 206 400.383 206 394.575 209.81 392.168 215.6 390.586 219.929 390.52 224.666 391.982 229.037L392.01 229.247 392.01 230C392.01 234.85 394.214 239.437 398 242.468L398 244.924C398 245.329 397.755 245.695 397.38 245.849L392.463 247.867C387.863 249.514 383.478 251.398 379.775 254.429 377.442 256.255 376.058 259.038 376.011 262L376.011 268.683C375.567 268.646 375.121 268.646 374.677 268.683L366.439 241.683C366.182 240.895 365.336 240.465 364.548 240.721 363.781 240.971 363.349 241.782 363.57 242.558L371.746 269.358C368.697 270.377 366.788 272.138 368.29 277.948 368.875 280.21 369.759 282.648 371.881 283.601 372.491 283.872 373.151 284.008 373.818 284 374.879 283.95 375.931 283.768 376.947 283.457 378.196 283.183 379.357 282.601 380.324 281.764 385.139 283.455 392.67 284.496 400.814 284.888L399.28 252.824C402.118 253.634 405.058 254.03 408.009 254ZM376.016 279.567C375.216 279.859 374.367 279.991 373.516 279.956 373.407 279.907 372.829 279.532 372.162 276.951 371.294 273.593 371.286 273.564 374.187 272.814L374.441 272.749C375.008 272.62 375.597 272.617 376.165 272.743L376.393 272.793C377.61 273.065 378.582 273.979 378.928 275.177 379.327 277.192 378.027 279.151 376.016 279.567ZM408.009 250C405.316 250.028 402.634 249.648 400.055 248.872 401.282 247.93 402 246.471 402 244.924L402 244.824C405.848 246.395 410.158 246.395 414.006 244.824L414.006 244.924C414.005 246.473 414.725 247.934 415.954 248.876 413.378 249.65 410.699 250.029 408.009 250ZM396.009 230 396.009 226.6C401.066 220.5 406.483 224.623 415.441 218.375 416.659 217.526 417.9 223.165 420.009 225.135L420.009 230C420.009 236.627 414.636 242 408.009 242 401.382 242 396.009 236.627 396.009 230Z" fill="#FFFFFF"/><path d="M407.006 261 407.006 288.39 421.006 288.39C421.006 289.264 421.703 289.978 422.576 290L427.946 290C428.837 290 429.56 289.281 429.566 288.39L443.566 288.39 443.566 261ZM424.226 285.17 410.226 285.17 410.226 264.17 424.226 264.17ZM440.306 285.17 426.306 285.17 426.306 264.17 440.306 264.17Z" fill="#FFFFFF"/><path d="M429.566 269.59 437.086 269.59 437.086 271.2 429.566 271.2Z" fill="#FFFFFF"/><path d="M429.566 272.81 437.086 272.81 437.086 274.42 429.566 274.42Z" fill="#FFFFFF"/><path d="M429.566 276.04 434.776 276.04 434.776 277.65 429.566 277.65Z" fill="#FFFFFF"/></g></svg>