<svg width="30" height="30" xmlns="http://www.w3.org/2000/svg" xmlns:xlink="http://www.w3.org/1999/xlink" overflow="hidden"><defs><clipPath id="clip0"><rect x="552" y="345" width="30" height="30"/></clipPath></defs><g clip-path="url(#clip0)" transform="translate(-552 -345)"><path d="M567 349C562.814 349 557.381 350.049 557.381 350.049L557.367 350.064C555.461 350.369 554 352.008 554 354L554 360 554 360.002 554 366 554 366.002C554.004 367.968 555.435 369.639 557.377 369.945L557.381 369.951C557.381 369.951 562.814 371.002 567 371.002 571.186 371.002 576.619 369.951 576.619 369.951L576.621 369.949C578.565 369.644 579.998 367.97 580 366.002L580 366 580 360.002 580 360 580 354C579.997 352.034 578.565 350.361 576.623 350.055L576.619 350.049C576.619 350.049 571.186 349 567 349ZM564 355.398 572 360 564 364.602 564 355.398Z" fill="#0D1A2D"/></g></svg>