<svg width="33" height="34" xmlns="http://www.w3.org/2000/svg" xmlns:xlink="http://www.w3.org/1999/xlink" overflow="hidden"><defs><clipPath id="clip0"><rect x="493" y="343" width="33" height="34"/></clipPath></defs><g clip-path="url(#clip0)" transform="translate(-493 -343)"><path d="M27.06 2.64 5.94 2.64C4.1184 2.64 2.64 4.1184 2.64 5.94L2.64 27.06C2.64 28.8816 4.1184 30.36 5.94 30.36L27.06 30.36C28.8816 30.36 30.36 28.8816 30.36 27.06L30.36 5.94C30.36 4.1184 28.8816 2.64 27.06 2.64ZM11.22 13.2 11.22 25.74 7.26 25.74 7.26 13.2 11.22 13.2ZM7.26 9.5502C7.26 8.6262 8.052 7.92 9.24 7.92 10.428 7.92 11.1738 8.6262 11.22 9.5502 11.22 10.4742 10.4808 11.22 9.24 11.22 8.052 11.22 7.26 10.4742 7.26 9.5502ZM25.74 25.74 21.78 25.74C21.78 25.74 21.78 19.6284 21.78 19.14 21.78 17.82 21.12 16.5 19.47 16.4736L19.4172 16.4736C17.82 16.4736 17.16 17.8332 17.16 19.14 17.16 19.7406 17.16 25.74 17.16 25.74L13.2 25.74 13.2 13.2 17.16 13.2 17.16 14.8896C17.16 14.8896 18.4338 13.2 20.9946 13.2 23.6148 13.2 25.74 15.0018 25.74 18.6516L25.74 25.74Z" fill="#0D1A2D" transform="matrix(1 0 0 1.0303 493 343)"/></g></svg>