<svg width="96" height="96" xmlns="http://www.w3.org/2000/svg" xmlns:xlink="http://www.w3.org/1999/xlink" overflow="hidden"><defs><clipPath id="clip0"><rect x="594" y="204" width="96" height="96"/></clipPath></defs><g clip-path="url(#clip0)" transform="translate(-594 -204)"><path d="M650 254.5C650 256.7 648.2 258.5 646 258.5L642 258.5C639.8 258.5 638 256.7 638 254.5L638 252.5 604 252.5 604 280.5C604 282.7 605.8 284.5 608 284.5L680 284.5C682.2 284.5 684 282.7 684 280.5L684 252.5 650 252.5 650 254.5Z" fill="#FFFFFF"/><path d="M680 228.5 660 228.5 660 222C660 218.1 656.9 215 653 215L635 215C631.1 215 628 218.1 628 222L628 228.5 608 228.5C605.8 228.5 604 230.3 604 232.5L604 248.5 638 248.5 638 246.5 650 246.5 650 248.5 684 248.5 684 232.5C684 230.3 682.2 228.5 680 228.5M634 228.5 634 222C634 221.4 634.4 221 635 221L653 221C653.6 221 654 221.4 654 222L654 228.5 634 228.5Z" fill="#FFFFFF"/></g></svg>