<svg width="1894" height="1180" xmlns="http://www.w3.org/2000/svg" xmlns:xlink="http://www.w3.org/1999/xlink" overflow="hidden"><defs><clipPath id="clip0"><rect x="739" y="394" width="1894" height="1180"/></clipPath></defs><g clip-path="url(#clip0)" transform="translate(-739 -394)"><path d="M2019.79 545.671 1729.84 694.622 1684.62 777.077C1687.28 784.169 1690.65 791.036 1692.6 798.355 1704.49 842.91 1684.19 789.086 1700.58 838.253 1702.36 843.572 1702.79 849.546 1705.9 854.212 1712.32 863.841 1709.79 859.332 1713.88 867.511L1583.54 785.056 1189.85 995.183 958.424 1213.29 1176.55 1192.01 1402.66 973.904C1385.81 1000.5 1370.42 1028.08 1352.11 1053.7 1347.68 1059.91 1342.94 1065.9 1338.81 1072.32 1334.95 1078.33 1332.22 1085.05 1328.17 1090.94 1322.45 1099.27 1313.31 1105.49 1309.55 1114.88 1302.59 1132.29 1307.1 1124.36 1296.25 1138.81 1295.37 1142.36 1295.08 1146.11 1293.59 1149.45 1291.49 1154.18 1288.12 1158.23 1285.61 1162.75 1283.69 1166.22 1281.85 1169.75 1280.29 1173.39 1277.35 1180.25 1277.63 1179.19 1277.63 1184.03L1498.42 1173.39 1636.74 957.945 1836.25 835.593 1626.1 1048.38 1753.79 976.564 1650.04 1298.4 1788.37 1210.63 1916.05 1207.97 1884.13 1231.91 1990.53 1250.53 2120.88 1335.64 2232.6 1338.3 2301.76 1258.51 2200.68 1274.47 2136.84 1253.19 2110.23 1098.92 2221.96 1043.06 2378.9 1048.38 2397.52 1117.54 2456.04 1064.34 2533.19 1040.4 2570.43 1003.16 2525.21 957.945 2562.45 941.987 2402.84 843.572 2397.52 801.015 2067.67 689.302 2075.65 750.478 2001.17 681.322ZM2002.95 394.048C2004.49 393.837 2006.27 394.308 2008.33 395.621 2024.86 406.128 2072.29 459.776 2083.08 506.526 2093.87 553.276 2039.43 609.582 2074.99 642.627 2110.56 675.671 2236.59 676.259 2296.48 704.793 2450.85 758.188 2427.97 799.197 2487.1 832.412 2546.22 865.627 2634.09 916.724 2632.99 962.091 2631.89 1007.46 2527.07 1070.53 2480.51 1104.61 2433.95 1138.69 2376.02 1169.99 2353.63 1166.58 2331.23 1163.17 2382.48 1101.36 2346.13 1084.14 2327.4 1079.64 2224.72 1082.5 2196.2 1102.41 2167.68 1122.33 2160.9 1214.73 2184.81 1235.93 2208.71 1257.12 2340.82 1204.82 2339.64 1229.57 2338.46 1254.31 2234.88 1374.25 2177.74 1384.41 2120.6 1394.58 2061.32 1308.12 1996.79 1290.58 1932.26 1273.04 1837.98 1251.75 1790.56 1279.18 1743.14 1306.61 1702.89 1394.73 1712.29 1455.14 1721.68 1515.55 1775.34 1586.88 1747.5 1572.01 1719.65 1557.14 1585.82 1424.49 1545.23 1365.92 1504.64 1307.35 1533.01 1260.75 1457.55 1250.45 1382.09 1240.14 1156.99 1304.35 1092.48 1304.07 1027.97 1303.79 1128.3 1247.37 1070.49 1248.79 1012.69 1250.2 688.994 1350.65 745.619 1312.56 802.243 1274.47 1041.39 977.839 1221.28 881.019 1401.18 784.198 1527.22 767.963 1616.13 721.693 1705.05 675.422 1699.42 642.802 1754.76 603.398 1810.1 563.996 1909.97 511.928 1948.17 485.275 1986.36 458.622 1973.91 458.426 1983.93 443.484 1992.71 430.409 1992.16 395.526 2002.95 394.048Z" fill="#FFFFFF" fill-rule="evenodd"/><path d="M1879.63 727.568 1949.14 792.878 1874.49 798 1823 763.424 1835.87 709.64 1953 620 1914.39 677.626 1918.25 723.727 1879.63 727.568Z" fill="#FFFFFF" fill-rule="evenodd"/><path d="M2211.98 817.307 2224.82 844.337 2217.11 853.738 2200.43 865.49 2209.41 871.366 2240.22 861.964 2241.5 860.789C2242.79 859.614 2244.35 858.647 2245.35 857.264 2246.1 856.233 2246.12 854.882 2246.64 853.738 2248.26 850.177 2250.06 846.687 2251.77 843.161L2211.98 817.307ZM2209.41 798 2231.23 804.436 2317.24 858.495 2375 921.564 2332.64 924.139 2272.31 882.951 2220.96 888.099 2171.45 871.184 2120.39 847.184 2104.16 850.772 2156.78 877.802 2220.96 899.683 2267.18 904.832 2267.18 916.416 2215.83 916.416 2120.84 889.386 2051.53 873.94 2002.75 884.238 1936 928 1979.64 862.357 2209.41 798Z" fill="#FFFFFF" fill-rule="evenodd"/></g></svg>