<svg width="96" height="96" xmlns="http://www.w3.org/2000/svg" xmlns:xlink="http://www.w3.org/1999/xlink" overflow="hidden"><defs><clipPath id="clip0"><rect x="670" y="418" width="96" height="96"/></clipPath></defs><g clip-path="url(#clip0)" transform="translate(-670 -418)"><path d="M744.793 462.863 749.208 457.071 751.594 458.89 747.179 464.682Z" fill="#0A713D"/><path d="M748.516 467.112 755.66 466.147 756.062 469.12 748.917 470.085Z" fill="#0A713D"/><path d="M725.073 469.786 725.649 466.843 732.725 468.229 732.148 471.172Z" fill="#0A713D"/><path d="M720.882 490.467 727.129 492.217 731.45 501.202 734.562 506 762.986 506 756.829 483.995 748.02 476 745.43 477.846 745.458 477.843 745.009 488.629 744.57 488.629 742.329 479.128 735.036 476 724.216 486.614 718.567 488.196 720.882 490.467Z" fill="#0A713D"/><path d="M699.285 491.681 712.228 486.18 719.331 493.148 725.014 494.74 728.829 502.674 730.986 506 690.986 506 699.285 491.681Z" fill="#0A713D"/><path d="M730.4 447.473C730.695 446.576 730.729 445.615 730.5 444.699L732.816 442.281C733.464 441.605 733.453 440.534 732.79 439.872L730.3 437.384C729.637 436.721 728.567 436.71 727.89 437.358L725.502 439.646C724.533 439.385 723.508 439.421 722.561 439.751 713.006 431.789 701.144 426.342 692.188 426.074 691.807 426.048 691.465 426.308 691.388 426.683 691.299 427.052 691.482 427.432 691.825 427.594 699.48 431.223 707.02 436.747 716.397 445.667 715.958 446.621 715.831 447.689 716.033 448.72L672.531 490.389C671.843 491.047 671.818 492.138 672.476 492.827 672.484 492.835 672.492 492.843 672.5 492.851L677.323 497.67C677.995 498.343 679.086 498.343 679.758 497.67 679.767 497.661 679.776 497.652 679.785 497.643L721.491 454.1C722.504 454.28 723.547 454.143 724.479 453.708 731.379 460.859 738.437 469.07 743.018 477.948 743.153 478.215 743.426 478.384 743.725 478.384 743.798 478.384 743.87 478.374 743.94 478.354 744.305 478.255 744.549 477.912 744.523 477.535 743.971 468.463 738.443 456.87 730.4 447.473Z" fill="#0A713D"/></g></svg>