<svg width="96" height="96" xmlns="http://www.w3.org/2000/svg" xmlns:xlink="http://www.w3.org/1999/xlink" overflow="hidden"><defs><clipPath id="clip0"><rect x="249" y="550" width="96" height="96"/></clipPath></defs><g clip-path="url(#clip0)" transform="translate(-249 -550)"><path d="M281 565.996C281 570.412 277.42 573.992 273.004 573.992 268.588 573.992 265.008 570.412 265.008 565.996 265.008 561.58 268.588 558 273.004 558 277.42 558 281 561.58 281 565.996Z" fill="#0A713D"/><path d="M329.022 569.372C327.574 567.704 325.048 567.525 323.38 568.972L299.768 589.432C298.786 588.315 297.868 587.223 296.982 586.147L287.037 600.682C287.037 600.698 287.028 600.712 287.026 600.727L284.1 615.361 287.992 616.255 290.722 603.27C290.922 603.487 291.132 603.705 291.337 603.923L288.032 634.562C287.763 636.755 289.323 638.75 291.515 639.019 293.708 639.288 295.703 637.729 295.973 635.536 295.977 635.497 295.981 635.459 295.985 635.42L299.811 599.95 299.9 599.9 328.62 575.014C330.289 573.567 330.469 571.041 329.022 569.372Z" fill="#0A713D"/><path d="M286.989 596.593C286.957 596.297 286.893 596.005 286.796 595.723L295.018 583.706C293.054 581.206 291.376 578.881 289.981 576.842 295.681 573.201 302.681 570.406 309.476 567.709 311.529 566.894 312.533 564.568 311.717 562.515 310.902 560.461 308.576 559.458 306.523 560.273 299.048 563.242 291.316 566.313 284.783 570.662 278.755 574.675 275.245 577.896 272.667 581.779 270.301 585.345 269.281 594.813 269.025 597.629 268.825 599.829 270.447 601.775 272.647 601.975 272.767 601.985 272.888 601.991 273.009 601.991 273.143 601.991 273.276 601.985 273.409 601.971L283.409 600.971C285.606 600.75 287.209 598.79 286.989 596.593ZM277.582 593.514C277.882 591.555 278.226 589.778 278.566 588.431 279.614 589.893 280.766 591.442 282.029 593.069Z" fill="#0A713D"/></g></svg>