<svg width="96" height="96" xmlns="http://www.w3.org/2000/svg" xmlns:xlink="http://www.w3.org/1999/xlink" overflow="hidden"><defs><clipPath id="clip0"><rect x="668" y="550" width="96" height="96"/></clipPath></defs><g clip-path="url(#clip0)" transform="translate(-668 -550)"><path d="M701 580.8C701 585.771 696.971 589.8 692 589.8 687.029 589.8 683 585.771 683 580.8 683 575.829 687.029 571.8 692 571.8 696.971 571.8 701 575.829 701 580.8Z" fill="#0A713D"/><path d="M749 580.8C749 585.771 744.971 589.8 740 589.8 735.029 589.8 731 585.771 731 580.8 731 575.829 735.029 571.8 740 571.8 744.971 571.8 749 575.829 749 580.8Z" fill="#0A713D"/><path d="M734 624.2 734 615.2C734 613.8 733.4 612.4 732.2 611.6 729.8 609.6 726.6 608.2 723.4 607.4 721.2 606.8 718.6 606.2 716 606.2 713.6 606.2 711 606.6 708.6 607.4 705.4 608.2 702.4 609.8 699.8 611.6 698.6 612.6 698 613.8 698 615.2L698 624.2 734 624.2Z" fill="#0A713D"/><path d="M725 594.8C725 599.771 720.971 603.8 716 603.8 711.029 603.8 707 599.771 707 594.8 707 589.829 711.029 585.8 716 585.8 720.971 585.8 725 589.829 725 594.8Z" fill="#0A713D"/><path d="M756.2 597.6C753.8 595.6 750.6 594.2 747.4 593.4 745.2 592.8 742.6 592.2 740 592.2 737.6 592.2 735 592.6 732.6 593.4 731.4 593.8 730.2 594.2 729 594.8L729 595C729 598.4 727.6 601.6 725.4 603.8 729.2 605 732.2 606.6 734.6 608.4 735.2 609 735.8 609.4 736.2 610.2L758 610.2 758 601.2C758 599.8 757.4 598.4 756.2 597.6Z" fill="#0A713D"/><path d="M697.4 608.4 697.4 608.4C700.2 606.4 703.4 604.8 706.6 603.8 704.4 601.4 703 598.4 703 595 703 594.8 703 594.8 703 594.6 701.8 594.2 700.6 593.6 699.4 593.4 697.2 592.8 694.6 592.2 692 592.2 689.6 592.2 687 592.6 684.6 593.4 681.4 594.4 678.4 595.8 675.8 597.6 674.6 598.4 674 599.8 674 601.2L674 610.2 695.6 610.2C696.2 609.4 696.6 609 697.4 608.4Z" fill="#0A713D"/></g></svg>