<svg width="96" height="96" xmlns="http://www.w3.org/2000/svg" xmlns:xlink="http://www.w3.org/1999/xlink" overflow="hidden"><defs><clipPath id="clip0"><rect x="459" y="557" width="96" height="96"/></clipPath></defs><g clip-path="url(#clip0)" transform="translate(-459 -557)"><path d="M548.84 599.26C548.84 592.26 544.92 582 536.5 582L518.5 582C518.053 581.102 517.281 580.408 516.34 580.06 515.378 579.671 514.302 579.671 513.34 580.06 512.573 579.363 511.576 578.972 510.54 578.96 509.374 578.95 508.257 579.429 507.46 580.28 506.389 579.81 505.171 579.81 504.1 580.28 503.303 580.638 502.641 581.24 502.21 582 502.21 582 475.73 582 475.65 582.06 469.9 582.71 465.5 589.91 465.5 599 465.5 608.53 470.33 616 476.5 616L500 616 500 631 510 623.25 520 631 520 616 543.5 616C544.605 616 545.5 615.105 545.5 614 545.5 612.895 544.605 612 543.5 612 540.603 612.13 538.146 609.896 538 607L544 607C546.34 607 548.84 605 548.84 599.26ZM510.34 586.18C515.189 586.18 519.12 590.111 519.12 594.96 519.12 599.809 515.189 603.74 510.34 603.74 505.506 603.74 501.582 599.833 501.56 595 501.538 590.151 505.451 586.202 510.3 586.18 510.313 586.18 510.327 586.18 510.34 586.18ZM498.06 586C498.04 586.253 498.04 586.507 498.06 586.76 495.924 587.601 494.869 590.01 495.7 592.15 494.98 592.926 494.574 593.942 494.56 595 494.572 596.138 495.049 597.222 495.88 598 495.41 599.067 495.41 600.283 495.88 601.35 496.155 601.997 496.589 602.564 497.14 603L485.92 603C486.62 601.425 486.988 599.723 487 598 487 593 485.78 588.84 483.73 586ZM476.5 612C473.12 612 469.5 606.78 469.5 599 469.5 591.22 473.12 586 476.5 586 480.27 586 483 591 483 598 483 598 482.93 603 480 603 478.58 603 477 600.65 477 597.5 476.995 596.828 477.065 596.157 477.21 595.5 477.45 594.42 476.77 593.35 475.69 593.11 474.61 592.87 473.54 593.55 473.3 594.63 473.095 595.573 472.995 596.535 473 597.5 473 602.83 476.08 607 480 607L500 607 500 612ZM510 618.19 504 622.84 504 609.49C504.232 609.635 504.476 609.759 504.73 609.86 505.695 610.235 506.765 610.235 507.73 609.86 508.501 610.576 509.508 610.982 510.56 611 511.725 611.005 512.84 610.527 513.64 609.68 514.385 609.993 515.203 610.09 516 609.96L516 622.84ZM520 612 520 607.35C520.304 607.263 520.599 607.146 520.88 607L534 607C534 608.794 534.563 610.543 535.61 612ZM523.4 603C524.349 602.561 525.089 601.768 525.46 600.79 525.832 599.825 525.832 598.755 525.46 597.79 526.167 597.029 526.559 596.029 526.56 594.99 526.565 593.825 526.087 592.71 525.24 591.91 525.705 590.838 525.705 589.622 525.24 588.55 524.828 587.585 524.057 586.818 523.09 586.41 523.072 586.271 523.042 586.134 523 586L536.5 586C540.5 586 543.08 590.35 544.17 594.42 545.44 599.2 544.6 602.65 544 603Z" fill="#0A713D"/></g></svg>