<svg width="1389" height="267" xmlns="http://www.w3.org/2000/svg" xmlns:xlink="http://www.w3.org/1999/xlink" overflow="hidden"><defs><clipPath id="clip0"><rect x="1675" y="1067" width="1389" height="267"/></clipPath></defs><g clip-path="url(#clip0)" transform="translate(-1675 -1067)"><path d="M1799.61 1107 1879.53 1107.86 1769.53 1240.36 1806.48 1244.66 1870.94 1163.78 1950 1162.06 1842.58 1298 1690.47 1298 1675.86 1281.65C1675.57 1274.77 1675.29 1267.89 1675 1261L1799.61 1107Z" fill="#0A713D" fill-rule="evenodd"/><path d="M1962.29 1155.46 1997.5 1109 2183 1109 2152.08 1158.9 2072.22 1157.18 1968.3 1300 1885 1300 1987.2 1167.5 1987.2 1156.32 1962.29 1155.46Z" fill="#0A713D" fill-rule="evenodd"/><path d="M2200 1298.14 2255.84 1298.14 2255.84 1154.46 2303.09 1298.14 2356.35 1298.14 2398.44 1147.58 2398.44 1299 2456 1299 2456 1108.86 2365.8 1108 2328.86 1231.03 2288.48 1108.86 2202.58 1108.86C2201.72 1171.95 2200.86 1235.05 2200 1298.14Z" fill="#082432" fill-rule="evenodd"/><path d="M2482.91 1107 2681.7 1107 2681.7 1144.91 2550.89 1259.5 2550.89 1263.81 2686 1263.81 2686 1300 2470 1300C2470.29 1287.36 2470.57 1274.73 2470.86 1262.09L2597.36 1144.91 2482.91 1144.91 2482.91 1107Z" fill="#082432" fill-rule="evenodd"/><path d="M2814.26 1301.12 2850.41 1301.12 2818.17 1333.12 2795.49 1310.27 2798.39 1309.98C2804.34 1308.76 2809.67 1305.8 2813.81 1301.66L2814.26 1301.12Z" fill="#D68826" fill-rule="evenodd"/><path d="M2841.32 1067.75 2876.61 1102.78 2854 1125.55 2869.09 1140.53 2855.77 1146.74C2849.86 1150.14 2844.25 1154.03 2839.02 1158.35L2837.89 1159.45 2829.06 1150.68 2806.45 1173.45 2771.17 1138.42 2841.32 1067.75Z" fill="#D68826" fill-rule="evenodd"/><path d="M153.579 14.3289 121.238 15.0768 121.238 0 85.8322 0 85.8322 15.8954 51.5591 16.6879 0 49.8884 86.0833 49.9729 86.0833 64.111 89.5151 64.1645C96.2688 64.8361 102.976 66.0734 109.561 67.8761L121.489 72.2647 121.489 50.0077 153.579 50.0392 153.579 14.3289Z" fill="#D68826" fill-rule="evenodd" transform="matrix(-0.704504 -0.7097 -0.7097 0.704504 3099.15 1179.11)"/><path d="M2913 1130C2971.55 1130 3020.4 1171.69 3031.7 1227.12L3034 1250 2964.1 1250 2964.83 1248.91C2967.68 1242.19 2969.25 1234.79 2969.25 1227.03 2969.25 1195.98 2944.07 1170.81 2913 1170.81 2881.93 1170.81 2856.75 1195.98 2856.75 1227.03 2856.75 1234.79 2858.32 1242.19 2861.17 1248.91L2861.9 1250 2792 1250 2794.3 1227.12C2805.6 1171.69 2854.45 1130 2913 1130Z" fill="#0D1A2D" fill-rule="evenodd"/><path d="M2912.5 1187C2934.87 1187 2953 1204.91 2953 1227 2953 1249.09 2934.87 1267 2912.5 1267 2890.13 1267 2872 1249.09 2872 1227 2872 1204.91 2890.13 1187 2912.5 1187ZM2912.5 1201.63C2898.32 1201.63 2886.82 1213.06 2886.82 1227.15 2886.82 1241.25 2898.32 1252.67 2912.5 1252.67 2926.68 1252.67 2938.18 1241.25 2938.18 1227.15 2938.18 1213.06 2926.68 1201.63 2912.5 1201.63Z" fill="#0D1A2D" fill-rule="evenodd"/><path d="M2812.59 1258.89 2842.37 1258.89 2824.94 1276.19 2821.34 1276.19 2821.17 1274.54C2819.95 1268.58 2817 1263.26 2812.86 1259.11ZM2958.75 1258.89 2984.58 1258.89 3002.01 1276.19 2951.76 1276.19 2951.76 1276.19 2939.3 1276.19 2943.74 1273.79 2946.8 1271.27 2946.8 1271.27 2952.06 1266.95ZM2865.79 1258.89 2872.47 1266.95 2879.05 1272.36 2879.05 1272.36 2880.79 1273.79 2885.24 1276.19 2875.19 1276.19 2875.19 1276.19 2824.94 1276.19 2842.37 1258.89ZM2984.58 1258.89 3011.19 1258.89 3010.96 1259.07C3006.82 1263.21 3003.87 1268.54 3002.65 1274.5L3002.48 1276.19 3002.01 1276.19Z" fill="#0D1A2D" fill-rule="evenodd"/><path d="M3010 1280.5C3010 1268.07 3020.07 1258 3032.5 1258 3044.93 1258 3055 1268.07 3055 1280.5 3055 1292.93 3044.93 1303 3032.5 1303 3020.07 1303 3010 1292.93 3010 1280.5Z" fill="#0D1A2D" fill-rule="evenodd"/><path d="M2769 1280.5C2769 1268.07 2779.07 1258 2791.5 1258 2803.93 1258 2814 1268.07 2814 1280.5 2814 1292.93 2803.93 1303 2791.5 1303 2779.07 1303 2769 1292.93 2769 1280.5Z" fill="#0D1A2D" fill-rule="evenodd"/><path d="M2975.93 1300.91 3009 1300.91 3009.41 1301.41C3014.93 1306.94 3022.55 1310.35 3030.97 1310.35L3031.92 1310.26 3008.81 1333.54 2975.93 1300.91Z" fill="#D68826" fill-rule="evenodd"/><path d="M2821.98 1285.11 3002.32 1285.13 3002.56 1287.51C3003.38 1291.48 3004.96 1295.17 3007.15 1298.42L3010.46 1302.43 2977.4 1302.43 2977.4 1302.43 2813.8 1302.41 2817.11 1298.39C2819.31 1295.14 2820.91 1291.45 2821.73 1287.48L2821.98 1285.11Z" fill="#0D1A2D" fill-rule="evenodd"/></g></svg>