<svg width="96" height="96" xmlns="http://www.w3.org/2000/svg" xmlns:xlink="http://www.w3.org/1999/xlink" overflow="hidden"><defs><clipPath id="clip0"><rect x="249" y="415" width="96" height="96"/></clipPath></defs><g clip-path="url(#clip0)" transform="translate(-249 -415)"><path d="M280.184 466.328C276.068 467.716 272.212 469.777 268.771 472.428 266.435 474.253 265.048 477.036 265 480L265 497.57 265.89 498.164C267.968 499.549 271.559 500.637 276 501.434L276 495 295 495 295 503.047C295.758 503.058 296.517 503.064 297.277 503.065 297.852 503.065 298.426 503.058 299 503.052L299 495 318 495 318 501.506C322.61 500.69 326.256 499.555 328.2 498.1L329 497.5 329 479.958C328.947 477.022 327.576 474.266 325.267 472.452 321.829 469.799 317.974 467.735 313.861 466.343L307.626 463.843C307.249 463.691 307.002 463.326 307 462.92L307 460.472C310.791 457.442 312.999 452.853 313 448L313 441 314 441C315.105 441 316 440.105 316 439 316 437.895 315.105 437 314 437L313 437C312.652 431.478 309.475 426.527 304.6 423.91L303 430.24C302.887 430.697 302.471 431.014 302 431L301.76 431C301.219 430.887 300.873 430.357 300.986 429.816 300.986 429.816 300.986 429.816 300.986 429.816 300.986 429.797 300.995 429.779 301 429.76L302.9 422.27C302.567 420.941 301.376 420.007 300.006 420L294.006 420C292.634 420.004 291.44 420.939 291.106 422.27L293.006 429.76C293.151 430.292 292.838 430.841 292.306 430.987L292.246 431 292.006 431C291.535 431.014 291.119 430.697 291.006 430.24L289.456 423.91C284.581 426.527 281.404 431.478 281.056 437L280.006 437C278.901 437 278.006 437.895 278.006 439 278.006 440.105 278.901 441 280.006 441L281.006 441 281.006 448C281.007 452.849 283.212 457.435 286.999 460.465L286.999 462.92C287.001 463.324 286.758 463.689 286.384 463.843ZM285 448 285 441 309 441 309 448C309 454.627 303.627 460 297 460 290.373 460 285 454.627 285 448ZM295 491 276.318 491 279.456 470.977 287.893 467.546C287.953 467.521 288.006 467.487 288.065 467.46L295.005 484ZM297 468C294.312 468.026 291.636 467.642 289.064 466.859 290.285 465.917 291 464.462 291 462.92L291 462.82C294.847 464.392 299.158 464.392 303.005 462.82L303.005 462.92C303.003 464.469 303.725 465.93 304.956 466.871 302.376 467.648 299.694 468.029 297 468ZM299 491 299 484 305.938 467.465C305.997 467.492 306.051 467.527 306.112 467.552L314.612 470.952 317.7 491Z" fill="#0A713D"/></g></svg>