<svg width="1866" height="416" xmlns="http://www.w3.org/2000/svg" xmlns:xlink="http://www.w3.org/1999/xlink" overflow="hidden"><defs><clipPath id="clip0"><rect x="83" y="219" width="1866" height="416"/></clipPath></defs><g clip-path="url(#clip0)" transform="translate(-83 -219)"><path d="M248.609 258 328.531 258.86 218.531 391.356 255.484 395.658 319.938 314.784 399 313.063 291.578 449 139.469 449 124.859 432.653C124.573 425.77 124.287 418.887 124 412.004L248.609 258Z" fill="#0A713D" fill-rule="evenodd"/><path d="M410.55 306.46 445.879 260 632 260 600.98 309.901 520.844 308.18 416.582 451 333 451 435.539 318.504 435.539 307.32 410.55 306.46Z" fill="#0A713D" fill-rule="evenodd"/><path d="M648 449.14 703.839 449.14 703.839 305.459 751.087 449.14 804.349 449.14 846.443 298.576 846.443 450 904 450 904 259.86 813.799 259 776.859 382.032 736.483 259.86 650.577 259.86C649.718 322.953 648.859 386.047 648 449.14Z" fill="#082432" fill-rule="evenodd"/><path d="M931.849 258 1129.72 258 1129.72 295.911 999.518 410.504 999.518 414.812 1134 414.812 1134 451 919 451C919.285 438.363 919.571 425.726 919.856 413.089L1045.77 295.911 931.849 295.911 931.849 258Z" fill="#082432" fill-rule="evenodd"/><path d="M1262.64 452.384 1298.8 452.384 1266.56 484.385 1243.88 461.542 1246.78 461.25C1252.73 460.03 1258.05 457.073 1262.19 452.93L1262.64 452.384Z" fill="#D68826" fill-rule="evenodd"/><path d="M1289.71 219.019 1324.99 254.044 1302.39 276.817 1317.47 291.794 1304.16 298.004C1298.24 301.408 1292.64 305.296 1287.41 309.616L1286.28 310.716 1277.44 301.944 1254.84 324.718 1219.55 289.693 1289.71 219.019Z" fill="#D68826" fill-rule="evenodd"/><path d="M153.579 14.3289 121.238 15.0768 121.238 0 85.8322 0 85.8322 15.8954 51.5591 16.6879 0 49.8884 86.0833 49.9729 86.0833 64.111 89.5151 64.1645C96.2688 64.8361 102.976 66.0734 109.561 67.8761L121.489 72.2647 121.489 50.0077 153.579 50.0392 153.579 14.3289Z" fill="#D68826" fill-rule="evenodd" transform="matrix(-0.704504 -0.7097 -0.7097 0.704504 1547.54 330.381)"/><path d="M1361 282C1419.55 282 1468.4 323.346 1479.7 378.309L1482 401 1412.1 401 1412.83 399.921C1415.68 393.251 1417.25 385.918 1417.25 378.221 1417.25 347.43 1392.07 322.47 1361 322.47 1329.93 322.47 1304.75 347.43 1304.75 378.221 1304.75 385.918 1306.32 393.251 1309.17 399.921L1309.9 401 1240 401 1242.3 378.309C1253.6 323.346 1302.45 282 1361 282Z" fill="#0D1A2D" fill-rule="evenodd"/><path d="M1360.5 338C1382.87 338 1401 356.132 1401 378.5 1401 400.868 1382.87 419 1360.5 419 1338.13 419 1320 400.868 1320 378.5 1320 356.132 1338.13 338 1360.5 338ZM1360.5 352.813C1346.32 352.813 1334.82 364.383 1334.82 378.654 1334.82 392.925 1346.32 404.495 1360.5 404.495 1374.68 404.495 1386.18 392.925 1386.18 378.654 1386.18 364.383 1374.68 352.813 1360.5 352.813Z" fill="#0D1A2D" fill-rule="evenodd"/><path d="M1260.97 410.155 1290.76 410.155 1273.32 427.459 1269.73 427.46 1269.56 425.813C1268.34 419.852 1265.39 414.525 1261.25 410.382ZM1407.14 410.155 1432.97 410.156 1450.4 427.46 1400.15 427.46 1400.15 427.46 1387.69 427.46 1392.13 425.059 1395.19 422.543 1395.19 422.543 1400.45 418.223ZM1314.17 410.155 1320.86 418.222 1327.44 423.628 1327.44 423.628 1329.18 425.059 1333.63 427.46 1323.58 427.459 1323.58 427.46 1273.32 427.459 1290.76 410.155ZM1432.97 410.155 1459.57 410.155 1459.35 410.34C1455.21 414.482 1452.26 419.81 1451.04 425.771L1450.87 427.46 1450.4 427.459Z" fill="#0D1A2D" fill-rule="evenodd"/><path d="M1459 432.5C1459 420.074 1468.85 410 1481 410 1493.15 410 1503 420.074 1503 432.5 1503 444.927 1493.15 455 1481 455 1468.85 455 1459 444.927 1459 432.5Z" fill="#0D1A2D" fill-rule="evenodd"/><path d="M1218 432.5C1218 420.074 1228.07 410 1240.5 410 1252.93 410 1263 420.074 1263 432.5 1263 444.927 1252.93 455 1240.5 455 1228.07 455 1218 444.927 1218 432.5Z" fill="#0D1A2D" fill-rule="evenodd"/><path d="M1424.32 452.178 1457.38 452.178 1457.8 452.682C1463.32 458.206 1470.94 461.622 1479.36 461.622L1480.31 461.527 1457.2 484.81 1424.32 452.178Z" fill="#D68826" fill-rule="evenodd"/><path d="M1270.37 436.374 1450.71 436.397 1450.95 438.774C1451.76 442.748 1453.35 446.44 1455.54 449.688L1458.85 453.701 1425.79 453.701 1425.79 453.701 1262.19 453.678 1265.5 449.661C1267.7 446.411 1269.29 442.719 1270.12 438.748L1270.37 436.374Z" fill="#0D1A2D" fill-rule="evenodd"/><text fill="#0D1A2D" font-family="Roboto,Roboto_MSFontService,sans-serif" font-weight="400" font-size="69" transform="matrix(1 0 0 1 125.263 576)">Universidad Tecnológica Minera de Zimapán </text></g></svg>