<svg width="1389" height="267" xmlns="http://www.w3.org/2000/svg" xmlns:xlink="http://www.w3.org/1999/xlink" overflow="hidden"><defs><clipPath id="clip0"><rect x="1706" y="1483" width="1389" height="267"/></clipPath></defs><g clip-path="url(#clip0)" transform="translate(-1706 -1483)"><path d="M1830.61 1523 1910.53 1523.86 1800.53 1656.36 1837.48 1660.66 1901.94 1579.78 1981 1578.06 1873.58 1714 1721.47 1714 1706.86 1697.65C1706.57 1690.77 1706.29 1683.89 1706 1677L1830.61 1523Z" fill="#FFFFFF" fill-rule="evenodd"/><path d="M1993.29 1571.22 2028.5 1525 2214 1525 2183.08 1574.64 2103.22 1572.93 1999.3 1715 1916 1715 2018.2 1583.2 2018.2 1572.07 1993.29 1571.22Z" fill="#FFFFFF" fill-rule="evenodd"/><path d="M2230 1713.14 2285.84 1713.14 2285.84 1570.22 2333.09 1713.14 2386.35 1713.14 2428.44 1563.37 2428.44 1714 2486 1714 2486 1524.86 2395.8 1524 2358.86 1646.39 2318.48 1524.86 2232.58 1524.86C2231.72 1587.62 2230.86 1650.38 2230 1713.14Z" fill="#FFFFFF" fill-rule="evenodd"/><path d="M2513.91 1523 2712.7 1523 2712.7 1560.71 2581.89 1674.71 2581.89 1679 2717 1679 2717 1715 2501 1715C2501.29 1702.43 2501.57 1689.86 2501.86 1677.29L2628.36 1560.71 2513.91 1560.71 2513.91 1523Z" fill="#FFFFFF" fill-rule="evenodd"/><path d="M2845.01 1716.85 2881.16 1716.85 2848.92 1748.85 2826.24 1726.01 2829.14 1725.72C2835.09 1724.5 2840.42 1721.54 2844.56 1717.4L2845.01 1716.85Z" fill="#FFFFFF" fill-rule="evenodd"/><path d="M2872.07 1483.49 2907.36 1518.51 2884.75 1541.28 2899.84 1556.26 2886.52 1562.47C2880.61 1565.88 2875 1569.76 2869.77 1574.08L2868.64 1575.18 2859.81 1566.41 2837.2 1589.19 2801.92 1554.16 2872.07 1483.49Z" fill="#FFFFFF" fill-rule="evenodd"/><path d="M153.579 14.3289 121.238 15.0768 121.238 0 85.8322 0 85.8322 15.8954 51.5591 16.6879 0 49.8884 86.0833 49.9729 86.0833 64.111 89.5151 64.1645C96.2688 64.8361 102.976 66.0734 109.561 67.8761L121.489 72.2647 121.489 50.0077 153.579 50.0392 153.579 14.3289Z" fill="#FFFFFF" fill-rule="evenodd" transform="matrix(-0.704504 -0.7097 -0.7097 0.704504 3129.9 1594.85)"/><path d="M2944 1546C3002.55 1546 3051.4 1587.69 3062.7 1643.12L3065 1666 2995.1 1666 2995.83 1664.91C2998.68 1658.19 3000.25 1650.79 3000.25 1643.03 3000.25 1611.98 2975.07 1586.81 2944 1586.81 2912.93 1586.81 2887.75 1611.98 2887.75 1643.03 2887.75 1650.79 2889.32 1658.19 2892.17 1664.91L2892.9 1666 2823 1666 2825.3 1643.12C2836.6 1587.69 2885.45 1546 2944 1546Z" fill="#FFFFFF" fill-rule="evenodd"/><path d="M2943.5 1603C2965.87 1603 2984 1620.91 2984 1643 2984 1665.09 2965.87 1683 2943.5 1683 2921.13 1683 2903 1665.09 2903 1643 2903 1620.91 2921.13 1603 2943.5 1603ZM2943.5 1617.63C2929.32 1617.63 2917.82 1629.06 2917.82 1643.15 2917.82 1657.25 2929.32 1668.67 2943.5 1668.67 2957.68 1668.67 2969.18 1657.25 2969.18 1643.15 2969.18 1629.06 2957.68 1617.63 2943.5 1617.63Z" fill="#FFFFFF" fill-rule="evenodd"/><path d="M2843.34 1674.62 2873.12 1674.62 2855.69 1691.93 2852.09 1691.93 2851.92 1690.28C2850.7 1684.32 2847.75 1678.99 2843.61 1674.85ZM2989.5 1674.62 3015.33 1674.62 3032.76 1691.93 2982.51 1691.93 2982.51 1691.93 2970.05 1691.93 2974.49 1689.53 2977.55 1687.01 2977.55 1687.01 2982.81 1682.69ZM2896.54 1674.62 2903.22 1682.69 2909.8 1688.1 2909.8 1688.1 2911.54 1689.53 2915.99 1691.93 2905.94 1691.93 2905.94 1691.93 2855.69 1691.93 2873.12 1674.62ZM3015.33 1674.62 3041.94 1674.62 3041.71 1674.81C3037.57 1678.95 3034.62 1684.28 3033.4 1690.24L3033.23 1691.93 3032.76 1691.93Z" fill="#FFFFFF" fill-rule="evenodd"/><path d="M3041 1696.5C3041 1684.07 3051.07 1674 3063.5 1674 3075.93 1674 3086 1684.07 3086 1696.5 3086 1708.93 3075.93 1719 3063.5 1719 3051.07 1719 3041 1708.93 3041 1696.5Z" fill="#FFFFFF" fill-rule="evenodd"/><path d="M2800 1696.5C2800 1684.07 2810.07 1674 2822.5 1674 2834.93 1674 2845 1684.07 2845 1696.5 2845 1708.93 2834.93 1719 2822.5 1719 2810.07 1719 2800 1708.93 2800 1696.5Z" fill="#FFFFFF" fill-rule="evenodd"/><path d="M3006.69 1716.65 3039.75 1716.65 3040.16 1717.15C3045.68 1722.67 3053.3 1726.09 3061.72 1726.09L3062.67 1725.99 3039.56 1749.28 3006.69 1716.65Z" fill="#FFFFFF" fill-rule="evenodd"/><path d="M2852.73 1700.84 3033.07 1700.86 3033.31 1703.24C3034.13 1707.22 3035.71 1710.91 3037.9 1714.16L3041.21 1718.17 3008.15 1718.17 3008.15 1718.17 2844.55 1718.15 2847.86 1714.13C2850.06 1710.88 2851.66 1707.19 2852.48 1703.22L2852.73 1700.84Z" fill="#FFFFFF" fill-rule="evenodd"/></g></svg>