<svg width="1011" height="192" xmlns="http://www.w3.org/2000/svg" xmlns:xlink="http://www.w3.org/1999/xlink" overflow="hidden"><defs><clipPath id="clip0"><rect x="1890" y="1713" width="1011" height="192"/></clipPath></defs><g clip-path="url(#clip0)" transform="translate(-1890 -1713)"><path d="M2014.61 1713 2094.53 1713.86 1984.53 1846.36 2021.48 1850.66 2085.94 1769.78 2165 1768.06 2057.58 1904 1905.47 1904 1890.86 1887.65C1890.57 1880.77 1890.29 1873.89 1890 1867L2014.61 1713Z" fill="#0A713D" fill-rule="evenodd"/><path d="M2177.29 1761.22 2212.5 1715 2398 1715 2367.08 1764.64 2287.22 1762.93 2183.3 1905 2100 1905 2202.2 1773.2 2202.2 1762.07 2177.29 1761.22Z" fill="#0A713D" fill-rule="evenodd"/><path d="M2415 1903.14 2470.84 1903.14 2470.84 1760.22 2518.09 1903.14 2571.35 1903.14 2613.44 1753.37 2613.44 1904 2671 1904 2671 1714.86 2580.8 1714 2543.86 1836.39 2503.48 1714.86 2417.58 1714.86C2416.72 1777.62 2415.86 1840.38 2415 1903.14Z" fill="#0D1A2D" fill-rule="evenodd"/><path d="M2697.91 1713 2896.7 1713 2896.7 1750.71 2765.89 1864.71 2765.89 1869 2901 1869 2901 1905 2685 1905C2685.29 1892.43 2685.57 1879.86 2685.86 1867.29L2812.36 1750.71 2697.91 1750.71 2697.91 1713Z" fill="#0D1A2D" fill-rule="evenodd"/></g></svg>