<svg width="1011" height="193" xmlns="http://www.w3.org/2000/svg" xmlns:xlink="http://www.w3.org/1999/xlink" overflow="hidden"><defs><clipPath id="clip0"><rect x="2526" y="304" width="1011" height="193"/></clipPath></defs><g clip-path="url(#clip0)" transform="translate(-2526 -304)"><path d="M2650.61 304 2730.53 304.86 2620.53 437.356 2657.48 441.658 2721.94 360.784 2801 359.063 2693.58 495 2541.47 495 2526.86 478.653C2526.57 471.77 2526.29 464.887 2526 458.004L2650.61 304Z" fill="#FFFFFF" fill-rule="evenodd"/><path d="M2813.29 352.46 2848.5 306 3034 306 3003.08 355.901 2923.22 354.18 2819.3 497 2736 497 2838.2 364.504 2838.2 353.32 2813.29 352.46Z" fill="#FFFFFF" fill-rule="evenodd"/><path d="M3050 495.14 3105.84 495.14 3105.84 351.459 3153.09 495.14 3206.35 495.14 3248.44 344.576 3248.44 496 3306 496 3306 305.86 3215.8 305 3178.86 428.032 3138.48 305.86 3052.58 305.86C3051.72 368.953 3050.86 432.047 3050 495.14Z" fill="#FFFFFF" fill-rule="evenodd"/><path d="M3333.91 304 3532.7 304 3532.7 341.911 3401.89 456.504 3401.89 460.812 3537 460.812 3537 497 3321 497C3321.29 484.363 3321.57 471.726 3321.86 459.089L3448.36 341.911 3333.91 341.911 3333.91 304Z" fill="#FFFFFF" fill-rule="evenodd"/></g></svg>